<svg width="320" height="64" viewBox="0 0 320 64" fill="none" xmlns="http://www.w3.org/2000/svg">
<path fill-rule="evenodd" clip-rule="evenodd" d="M168.6 26.8C164.9 30.7 159 34.3 151 34.5C141.5 34.8 136.5 34.2 124.8 29.1C127.1 25.9 128 22.7 128.1 19.1C128.3 14.2 126.1 10 121.7 7.3C117 4.4 114.1 3 114.1 3C116.4 4.3 117.9 7.6 118.5 11.9C119.3 17.7 117.8 24.8 111.1 29.2L119.9 44.7C113.3 44 108.8 47.5 108.8 47.5L117.3 54.7C117.3 54.7 124.5 50.1 135.9 52.4L122.1 33.3C132.5 39 148.8 42.5 148.8 42.5C148.8 42.5 142.8 42.6 137.9 41.2C136.4 40.8 135.1 41.2 137.1 42.3C137.6 42.6 143.8 45.7 149.7 46.4C160.3 47.5 164.3 43.4 165.2 42C166.173 40.4709 164.924 40.5843 162.225 40.8292L162.225 40.8292C161.041 40.9367 159.577 41.0695 157.9 41.1C152.4 41.1 146.9 39.4 144.5 38.1C153.7 38 170.6 36.3 171.2 30.8C171.3 29.4 170.3 27.5 168.6 26.8ZM34.1999 7.3C31.0999 14 35.2999 16.4 42.2999 16.4C44.9191 16.4 47.5383 15.5192 50.5785 14.4967C59.9581 11.3424 73.3445 6.84057 103.1 22.7C99.7998 23.6 95.5998 24.6 95.5998 24.6C92.3998 22.5 88.8998 24.4 86.0998 26.3C85.4901 26.6946 84.7066 27.3015 83.7897 28.0116C79.5947 31.2609 72.6085 36.6723 66.6998 33.8C65.1998 33 62.1999 31.4 59.7999 31.6C58.4562 31.6707 57.4627 32.1415 56.1472 32.7648C55.6025 33.0229 55.0026 33.3072 54.2999 33.6C51.8998 34.7 51.7999 32.9 54.4999 31C61.7999 26 77.7999 18.2 93.5998 20.6C72.3998 14 65.5998 15.1 43.5998 24.3C42.7999 24.7 41.8998 25 40.9999 25.3C41.9999 26.8 45.1999 28 49.6999 26.7C49.8298 26.6567 49.9819 26.6028 50.1521 26.5426L50.1522 26.5426L50.1526 26.5425L50.1532 26.5423L50.1534 26.5422C51.5551 26.0461 54.1735 25.1194 55.5998 26.1C55.5998 26.1 49.0998 30.3 43.4999 30.9C33.3999 32 20.1999 27.8 16.1999 23.4C14.7999 21.8 14.7999 20.4 16.3998 20.8L16.46 20.8134C17.5464 21.0553 23.5856 22.4 27.7999 22.4C30.6999 22.4 32.8999 22.2 34.6999 21.8C15.6999 14.7 29.5999 7.6 33.9999 6.3C34.9999 6 34.4999 7 34.1999 7.3ZM209.4 16.2H200.6V19.3H205.8V19.7C205.8 20.6 205.6 21.3 205.2 21.9C204.8 22.5 204.3 22.9 203.7 23.2C203.1 23.5 202.4 23.6 201.8 23.6C200.2 23.6 198.9 23 198 21.9C197.1 20.8 196.6 19.2 196.6 17.2C196.6 15.9 196.9 14.7 197.3 13.8C197.7 12.9 198.4 12.2 199.2 11.7C200 11.2 200.9 11 201.9 11C202.8 11 203.6 11.1 204.4 11.5C205.2 11.9 206 12.4 206.8 13.1L209.1 10.7C208.1 9.7 207 9 205.8 8.5C204.6 8 203.2 7.8 201.7 7.8C199.9 7.8 198.4 8.2 197 9C195.6 9.8 194.5 11 193.8 12.4C193.1 13.9 192.7 15.5 192.7 17.3C192.7 19.1 193.1 20.8 193.7 22.2C194.3 23.7 195.3 24.8 196.5 25.6C197.8 26.4 199.3 26.8 201 26.8C202 26.8 203 26.6 203.9 26.2C204.8 25.8 205.6 25.2 206.2 24.3V26.4H209.4V16.2ZM215.1 20.9H224.6V19.3C224.6 18 224.3 16.8 223.8 15.8C223.3 14.8 222.6 14 221.6 13.5C220.6 13 219.5 12.7 218.2 12.7C216.9 12.7 215.7 13 214.7 13.6C213.7 14.2 212.9 15 212.4 16.1C211.9 17.2 211.6 18.4 211.6 19.8C211.6 21.1 211.9 22.3 212.5 23.4C213.1 24.5 213.9 25.3 214.9 25.9C215.9 26.5 217.1 26.8 218.5 26.8C220.6 26.8 222.5 26.1 224 24.7L222.3 22.4C221.7 22.9 221.1 23.3 220.5 23.5C219.9 23.7 219.3 23.8 218.6 23.8C217.7 23.8 216.9 23.5 216.3 23C215.7 22.5 215.3 21.8 215.1 20.9ZM215.2 18.3C215.4 17.4 215.8 16.7 216.3 16.2C216.8 15.7 217.5 15.4 218.2 15.4C219 15.4 219.7 15.7 220.2 16.2C220.7 16.7 221 17.4 221.1 18.3H215.2ZM245.3 13.9C246.1 14.7 246.5 15.8 246.5 17.1V26.3H242.9V18.2C242.9 17.5 242.7 16.9 242.3 16.5C241.9 16.1 241.4 15.8 240.7 15.8C240 15.8 239.5 16 239.1 16.5C238.7 17 238.5 17.6 238.5 18.3V26.3H234.9V18.2C234.9 17.5 234.7 16.9 234.4 16.5C234 16.1 233.5 15.8 232.8 15.8C232.1 15.8 231.5 16.1 231.1 16.6C230.7 17.1 230.5 17.8 230.5 18.6V26.4H226.9V13.1H230.2V15C230.6 14.3 231.1 13.7 231.8 13.3C232.5 12.9 233.3 12.7 234.2 12.7C235.1 12.7 235.9 12.9 236.5 13.3C237.2 13.7 237.7 14.2 238 14.9C238.4 14.2 239 13.7 239.7 13.3C240.4 12.9 241.2 12.7 242 12.7C243.4 12.7 244.5 13.1 245.3 13.9ZM252.2 20.9H261.7V19.3C261.7 18 261.4 16.8 260.9 15.8C260.4 14.8 259.7 14 258.7 13.5C257.7 13 256.6 12.7 255.3 12.7C254 12.7 252.8 13 251.8 13.6C250.8 14.2 250 15 249.5 16.1C249 17.2 248.7 18.4 248.7 19.8C248.7 21.1 249 22.3 249.6 23.4C250.2 24.5 251 25.3 252 25.9C253 26.5 254.2 26.8 255.6 26.8C257.7 26.8 259.6 26.1 261.1 24.7L259.4 22.4C258.8 22.9 258.2 23.3 257.6 23.5C257 23.7 256.4 23.8 255.7 23.8C254.8 23.8 254 23.5 253.4 23C252.8 22.5 252.4 21.8 252.2 20.9ZM252.2 18.3C252.4 17.4 252.8 16.7 253.3 16.2C253.8 15.7 254.5 15.4 255.2 15.4C256 15.4 256.7 15.7 257.2 16.2C257.7 16.7 258 17.4 258.1 18.3H252.2ZM276.1 20.9H266.6C266.8 21.8 267.2 22.5 267.8 23C268.4 23.5 269.2 23.8 270.1 23.8C270.8 23.8 271.4 23.7 272 23.5C272.6 23.3 273.2 22.9 273.8 22.4L275.5 24.7C274 26.1 272.1 26.8 270 26.8C268.6 26.8 267.4 26.5 266.4 25.9C265.4 25.3 264.6 24.5 264 23.4C263.4 22.3 263.1 21.1 263.1 19.8C263.1 18.4 263.4 17.2 263.9 16.1C264.4 15 265.2 14.2 266.2 13.6C267.2 13 268.4 12.7 269.7 12.7C271 12.7 272.1 13 273.1 13.5C274.1 14 274.8 14.8 275.3 15.8C275.8 16.8 276.1 18 276.1 19.3V20.9ZM267.7 16.2C267.2 16.7 266.8 17.4 266.6 18.3H272.5C272.4 17.4 272.1 16.7 271.6 16.2C271.1 15.7 270.4 15.4 269.6 15.4C268.9 15.4 268.3 15.7 267.7 16.2ZM290.2 17.4C290.2 16 289.8 14.9 289 14C288.2 13.1 287.1 12.7 285.6 12.6C284.7 12.6 283.8 12.9 283.1 13.3C282.4 13.7 281.8 14.3 281.5 15V13.1H278.2V26.5H281.8V18.9C281.8 17.9 282 17.2 282.5 16.7C283 16.2 283.6 15.9 284.3 15.9C285 15.9 285.6 16.1 286 16.5C286.4 16.9 286.6 17.5 286.6 18.4V26.4H290.2V17.4ZM294 16H291.7V13.2H294V10.1L297.6 8.10001V13.1H300.3V16H297.6V22.4C297.6 22.8 297.7 23.2 298 23.4C298.2 23.6 298.7 23.7 299.3 23.7C299.8 23.7 300.2 23.7 300.6 23.6V26.4C299.9 26.6 299.1 26.7 298.1 26.7C296.6 26.7 295.6 26.4 295 25.8C294.4 25.2 294.1 24.3 294.1 23.1V16H294ZM304.9 20.9H314.4V19.3C314.4 18 314.1 16.8 313.6 15.8C313.1 14.8 312.4 14 311.4 13.5C310.4 13 309.3 12.7 308 12.7C306.7 12.7 305.5 13 304.5 13.6C303.5 14.2 302.7 15 302.2 16.1C301.7 17.2 301.4 18.4 301.4 19.8C301.4 21.1 301.7 22.3 302.3 23.4C302.9 24.5 303.7 25.3 304.7 25.9C305.7 26.5 306.9 26.8 308.3 26.8C310.4 26.8 312.3 26.1 313.8 24.7L312.1 22.4C311.5 22.9 310.9 23.3 310.3 23.5C309.7 23.7 309.1 23.8 308.4 23.8C307.5 23.8 306.7 23.5 306.1 23C305.5 22.5 305.1 21.8 304.9 20.9ZM305 18.3C305.2 17.4 305.6 16.7 306.1 16.2C306.6 15.7 307.3 15.4 308 15.4C308.8 15.4 309.5 15.7 310 16.2C310.5 16.7 310.8 17.4 310.9 18.3H305ZM208.9 51.7H204.8L200.5 45H197.6V51.7H194V33.4H202.6C203.7 33.4 204.7 33.6 205.5 34.1C206.4 34.6 207.1 35.3 207.6 36.2C208.1 37.1 208.3 38.1 208.3 39.2C208.3 40.6 207.9 41.7 207.2 42.7C206.5 43.7 205.5 44.3 204.3 44.7L208.9 51.7ZM197.6 36.5V41.9H201.9C202.7 41.9 203.4 41.7 203.9 41.2C204.4 40.7 204.7 40.1 204.7 39.2C204.7 38.3 204.4 37.7 203.9 37.2C203.4 36.7 202.7 36.5 201.9 36.5H197.6ZM210.5 48.7C211.1 49.8 211.9 50.6 212.9 51.2C213.9 51.8 215.1 52.1 216.4 52.1C217.7 52.1 218.9 51.8 219.9 51.2C220.9 50.6 221.7 49.8 222.3 48.7C222.9 47.6 223.2 46.4 223.2 45C223.2 43.6 222.9 42.4 222.3 41.3C221.7 40.3 220.9 39.5 219.9 38.9C218.9 38.3 217.7 38 216.4 38C215.1 38 213.9 38.3 212.9 38.9C211.9 39.4 211.1 40.2 210.5 41.3C209.9 42.4 209.6 43.6 209.6 45C209.6 46.4 209.9 47.6 210.5 48.7ZM219.5 45C219.5 46.3 219.2 47.3 218.6 48C218.1 48.7 217.3 49.1 216.4 49.1C215.5 49.1 214.8 48.7 214.2 48C213.6 47.2 213.3 46.3 213.3 45C213.3 43.7 213.6 42.7 214.2 42C214.7 41.3 215.5 40.9 216.4 40.9C217.3 40.9 218 41.3 218.6 42C219.2 42.8 219.5 43.7 219.5 45ZM226.3 41.3H224V38.5H226.3V35.4L229.9 33.4V38.4H232.6V41.2H229.9V47.6C229.9 48 230 48.4 230.3 48.6C230.5 48.8 231 48.9 231.6 48.9C232.1 48.9 232.5 48.9 232.9 48.8V51.6C232.2 51.8 231.4 51.9 230.4 51.9C228.9 51.9 227.9 51.6 227.3 51C226.7 50.4 226.4 49.5 226.4 48.3V41.3H226.3ZM233.9 41.3H236.2H236.3V48.3C236.3 49.5 236.6 50.4 237.2 51C237.8 51.6 238.8 51.9 240.3 51.9C241.3 51.9 242.1 51.8 242.8 51.6V48.8C242.4 48.9 242 48.9 241.5 48.9C240.9 48.9 240.4 48.8 240.2 48.6C239.9 48.4 239.8 48 239.8 47.6V41.2H242.5V38.4H239.8V33.4L236.2 35.4V38.5H233.9V41.3ZM256.6 46.2H247.1C247.3 47.1 247.7 47.8 248.3 48.3C248.9 48.8 249.7 49.1 250.6 49.1C251.3 49.1 251.9 49 252.5 48.8C253.1 48.6 253.7 48.2 254.3 47.7L256 50C254.5 51.4 252.6 52.1 250.5 52.1C249.1 52.1 247.9 51.8 246.9 51.2C245.9 50.6 245.1 49.8 244.5 48.7C243.9 47.6 243.6 46.4 243.6 45.1C243.6 43.7 243.9 42.5 244.4 41.4C244.9 40.3 245.7 39.5 246.7 38.9C247.7 38.3 248.9 38 250.2 38C251.5 38 252.6 38.3 253.6 38.8C254.6 39.3 255.3 40.1 255.8 41.1C256.3 42.1 256.6 43.3 256.6 44.6V46.2ZM248.2 41.5C247.7 42 247.3 42.7 247.1 43.6H253C252.9 42.7 252.6 42 252.1 41.5C251.6 41 250.9 40.7 250.1 40.7C249.4 40.8 248.8 41 248.2 41.5ZM267.3 41.8V38.4C266.9 38.3 266.5 38.3 265.9 38.3C265 38.3 264.2 38.6 263.5 39.1C262.8 39.6 262.4 40.2 262.1 41.1V38.5H258.8V51.7H262.4V46.4C262.4 44.9 262.7 43.7 263.4 42.9C264 42.1 264.9 41.7 266 41.7C266.5 41.7 266.9 41.7 267.3 41.8ZM277.6 32.8H281.2V51.7H277.9V49.8C277.1 51.3 275.7 52.1 273.8 52.1C272.7 52.1 271.7 51.8 270.8 51.2C269.9 50.6 269.2 49.8 268.7 48.7C268.2 47.6 268 46.4 268 45C268 43.6 268.2 42.4 268.7 41.3C269.2 40.2 269.9 39.4 270.8 38.9C271.7 38.4 272.7 38 273.8 38C275.5 38 276.7 38.6 277.6 39.9V32.8ZM276.8 48C277.4 47.3 277.7 46.3 277.7 45C277.7 43.7 277.4 42.8 276.8 42.1C276.2 41.4 275.5 41 274.6 41C273.7 41 272.9 41.4 272.4 42.1C271.8 42.8 271.6 43.8 271.6 45.1C271.6 46.3 271.9 47.3 272.4 48.1C273 48.8 273.7 49.2 274.6 49.2C275.5 49.1 276.3 48.8 276.8 48ZM297.1 48.9H295.4V42.4C295.4 39.5 293.6 38 290 38C288.7 38 287.6 38.2 286.5 38.6C285.4 38.9 284.5 39.4 283.8 40L285.5 42.3C286 41.9 286.7 41.6 287.4 41.3C288.1 41 288.9 40.9 289.6 40.9C290.4 40.9 291.1 41.1 291.4 41.4C291.7 41.8 291.9 42.3 291.9 42.9V43.2L288.9 43.8C287.3 44.1 286 44.6 285 45.3C284.1 46 283.6 47 283.6 48.3C283.6 49.5 284 50.5 284.9 51.2C285.8 51.9 286.9 52.2 288.2 52.2C289.2 52.2 290.1 51.9 290.8 51.5C291.5 51.1 292.1 50.5 292.4 49.8V51.7H297.1V48.9ZM291.8 46.9C291.8 47.7 291.6 48.3 291 48.7C290.4 49.2 289.8 49.4 289.1 49.3C288.5 49.3 288 49.2 287.6 48.9C287.2 48.7 287 48.3 287 47.9C287 47.4 287.2 47 287.6 46.8C288.1 46.6 288.7 46.4 289.6 46.2L291.8 45.7V46.9ZM317.4 39.2C318.2 40 318.6 41.1 318.6 42.4V51.6H315V43.5C315 42.8 314.8 42.2 314.4 41.8C314 41.4 313.5 41.1 312.8 41.1C312.1 41.1 311.6 41.3 311.2 41.8C310.8 42.3 310.6 42.9 310.6 43.6V51.6H307V43.5C307 42.8 306.8 42.2 306.5 41.8C306.1 41.4 305.6 41.1 304.9 41.1C304.2 41.1 303.6 41.4 303.2 41.9C302.8 42.4 302.6 43.1 302.6 43.9V51.7H299V38.5H302.3V40.4C302.7 39.7 303.2 39.1 303.9 38.7C304.6 38.3 305.4 38.1 306.3 38.1C307.2 38.1 308 38.3 308.6 38.7C309.3 39.1 309.8 39.6 310.1 40.3C310.5 39.6 311.1 39.1 311.8 38.7C312.5 38.3 313.3 38.1 314.1 38.1C315.6 38 316.6 38.4 317.4 39.2ZM95.5999 34L101.4 32.6L104.7 39.3V57.3C104.7 57.3 100.8 61.1 94.5999 59.8L86.0999 52.6C91.2999 53.9 95.5999 50.6 95.5999 50.6V34ZM108.4 19.3C109 17.9 109.2 16.1 109 14.4C108.9 13.7 108.7 13 108.5 12.3C107.431 9.67635 104.568 10.2631 103.948 10.3902L103.9 10.4L95.5999 12.4C95.5999 12.4 90.0999 8.4 86.0999 6.8C84.0999 6 82.9998 5.7 80.9998 5.5C77.5999 5.2 74.8998 8.4 78.0998 8.7C84.7999 9.3 95.8998 15.1 107.1 21.2C107.361 21.0258 107.547 20.7759 107.788 20.45L107.788 20.45C107.824 20.4017 107.861 20.3517 107.9 20.3C107.971 20.1583 108.042 20.0292 108.108 19.9082L108.108 19.9081C108.229 19.6874 108.335 19.4937 108.4 19.3ZM2.69984 14.4C0.799845 12.5 3.29984 9.9 6.49984 11.9C8.39984 13 9.39984 14.5 10.4998 17.1C11.1101 18.5917 10.7549 18.3364 9.96408 17.7679C9.58861 17.498 9.11496 17.1576 8.59984 16.9C6.77414 16.0105 5.71544 15.7785 4.94158 15.609C4.06236 15.4163 3.55084 15.3042 2.69984 14.4Z" fill="#00811F"/>
</svg>
