<svg width="176" height="64" viewBox="0 0 176 64" fill="none" xmlns="http://www.w3.org/2000/svg">
<path fill-rule="evenodd" clip-rule="evenodd" d="M169.6 26.8C165.9 30.7 160 34.3 152 34.5C142.5 34.8 137.5 34.2 125.8 29.1C128.1 25.9 129 22.7 129.1 19.1C129.3 14.2 127.1 10 122.7 7.3C118 4.4 115.1 3 115.1 3C117.4 4.3 118.9 7.6 119.5 11.9C120.3 17.7 118.8 24.8 112.1 29.2L120.9 44.7C114.3 44 109.8 47.5 109.8 47.5L118.3 54.7C118.3 54.7 125.5 50.1 136.9 52.4L123.1 33.3C133.5 39 149.8 42.5 149.8 42.5C149.8 42.5 143.8 42.6 138.9 41.2C137.4 40.8 136.1 41.2 138.1 42.3C138.6 42.6 144.8 45.7 150.7 46.4C161.3 47.5 165.3 43.4 166.2 42C167.173 40.4709 165.924 40.5843 163.225 40.8292L163.225 40.8292C162.041 40.9367 160.577 41.0695 158.9 41.1C153.4 41.1 147.9 39.4 145.5 38.1C154.7 38 171.6 36.3 172.2 30.8C172.3 29.4 171.3 27.5 169.6 26.8ZM43.2999 16.4C36.2999 16.4 32.0999 14 35.1999 7.3C35.4999 7 35.9999 6 34.9999 6.3C30.5999 7.6 16.6999 14.7 35.6999 21.8C33.8999 22.2 31.6999 22.4 28.7999 22.4C24.5856 22.4 18.5464 21.0553 17.46 20.8134L17.3998 20.8C15.7999 20.4 15.7999 21.8 17.1999 23.4C21.1999 27.8 34.3999 32 44.4999 30.9C50.0998 30.3 56.5998 26.1 56.5998 26.1C55.1735 25.1194 52.5551 26.0461 51.1534 26.5422L51.1532 26.5423L51.1526 26.5425L51.1522 26.5426C50.982 26.6028 50.8298 26.6567 50.6999 26.7C46.1999 28 42.9999 26.8 41.9999 25.3C42.8998 25 43.7999 24.7 44.5998 24.3C66.5998 15.1 73.3998 14 94.5998 20.6C78.7999 18.2 62.7999 26 55.4999 31C52.7999 32.9 52.8998 34.7 55.2999 33.6C56.0026 33.3072 56.6025 33.0229 57.1472 32.7648C58.4627 32.1415 59.4562 31.6707 60.7999 31.6C63.1999 31.4 66.1998 33 67.6998 33.8C73.6085 36.6723 80.5947 31.2609 84.7897 28.0116C85.7066 27.3015 86.4901 26.6946 87.0998 26.3C89.8998 24.4 93.3998 22.5 96.5998 24.6C96.5998 24.6 100.8 23.6 104.1 22.7C74.3445 6.84057 60.9581 11.3424 51.5785 14.4967C48.5383 15.5192 45.9191 16.4 43.2999 16.4ZM96.5999 34L102.4 32.6L105.7 39.3V57.3C105.7 57.3 101.8 61.1 95.5999 59.8L87.0999 52.6C92.2999 53.9 96.5999 50.6 96.5999 50.6V34ZM109.4 19.3C110 17.9 110.2 16.1 110 14.4C109.9 13.7 109.7 13 109.5 12.3C108.431 9.67635 105.568 10.2631 104.948 10.3902L104.9 10.4L96.5999 12.4C96.5999 12.4 91.0999 8.4 87.0999 6.8C85.0999 6 83.9998 5.7 81.9998 5.5C78.5999 5.2 75.8998 8.4 79.0998 8.7C85.7999 9.3 96.8998 15.1 108.1 21.2C108.361 21.0258 108.547 20.7759 108.788 20.45L108.788 20.45C108.824 20.4017 108.861 20.3517 108.9 20.3C108.971 20.1583 109.042 20.0292 109.108 19.9082L109.108 19.9081C109.229 19.6874 109.335 19.4937 109.4 19.3ZM3.69984 14.4C1.79984 12.5 4.29984 9.9 7.49984 11.9C9.39984 13 10.3998 14.5 11.4998 17.1C12.1101 18.5917 11.7549 18.3364 10.9641 17.7679C10.5886 17.498 10.115 17.1576 9.59984 16.9C7.77414 16.0106 6.71544 15.7785 5.94158 15.609C5.06236 15.4163 4.55084 15.3042 3.69984 14.4Z" fill="#00811F"/>
</svg>
