<svg width="51" height="34" viewBox="0 0 51 34" fill="none" xmlns="http://www.w3.org/2000/svg">
    <path fill-rule="evenodd" clip-rule="evenodd" d="M0.15918 16.6887C0.15918 16.6887 11.3512 0.0440674 25.1577 0.0440674C38.9597 0.0440674 50.1517 16.6887 50.1517 16.6887C50.1517 16.6887 38.971 33.3784 25.1577 33.3784C11.3444 33.3784 0.15918 16.6887 0.15918 16.6887ZM40.0441 11.1968C40.6803 12.9145 41.0279 14.7723 41.0279 16.7113C41.0279 18.6374 40.6849 20.4835 40.0566 22.1917C41.9009 20.4888 43.6157 18.6509 45.1868 16.6932C43.6122 14.7352 41.8931 12.8979 40.0441 11.1968ZM10.2372 22.1697C9.61406 20.4676 9.274 18.6292 9.274 16.7113C9.274 14.7799 9.61887 12.929 10.2504 11.2169C10.2236 11.2414 10.1969 11.2658 10.1703 11.2902C8.36023 12.965 6.67516 14.7701 5.12863 16.6909C6.69367 18.641 8.40121 20.4723 10.2372 22.1697ZM13.2478 16.7113C13.2478 10.1373 18.577 4.80806 25.1509 4.80806C31.7249 4.80806 37.0541 10.1373 37.0541 16.7113C37.0541 23.2852 31.7249 28.6144 25.1509 28.6144C18.577 28.6144 13.2478 23.2852 13.2478 16.7113Z" fill="#00811F"/>
    <path fill-rule="evenodd" clip-rule="evenodd" d="M30.7074 16.7112C30.7074 19.78 28.2197 22.2677 25.1509 22.2677C22.0822 22.2677 19.5945 19.78 19.5945 16.7112C19.5945 13.6425 22.0822 11.1548 25.1509 11.1548C28.2197 11.1548 30.7074 13.6425 30.7074 16.7112ZM28.4767 15.3227C28.4767 16.0896 27.855 16.7113 27.0882 16.7113C26.3213 16.7113 25.6996 16.0896 25.6996 15.3227C25.6996 14.5558 26.3213 13.9341 27.0882 13.9341C27.855 13.9341 28.4767 14.5558 28.4767 15.3227Z" fill="#00811F"/>
</svg>
