<svg width="13" height="14" viewBox="0 0 13 14" fill="none" xmlns="http://www.w3.org/2000/svg">
<path d="M4.8125 7.63864V12.625C4.8125 12.7784 4.89205 12.9202 5.02243 13.0011C5.09315 13.0449 5.17358 13.067 5.25446 13.067C5.32208 13.067 5.38971 13.0515 5.45202 13.0206L7.94309 11.6947C8.09292 11.6195 8.1875 11.4666 8.1875 11.2991V7.63864L12.5412 3.79267C12.6345 3.70913 12.6875 3.5898 12.6875 3.46429V1.25446C12.6875 1.0105 12.4899 0.8125 12.2455 0.8125H0.754464C0.510058 0.8125 0.3125 1.0105 0.3125 1.25446V3.46429C0.3125 3.5898 0.365536 3.70913 0.45879 3.79267L4.8125 7.63864ZM1.4375 1.9375H11.5625V3.26761L7.20879 7.11358C7.11554 7.19712 7.0625 7.31645 7.0625 7.44196V10.9375L5.9375 11.5V7.44196C5.9375 7.31645 5.88446 7.19712 5.79121 7.11358L1.4375 3.26761V1.9375Z" fill="white"/>
</svg>
