<svg width="25" height="23" viewBox="0 0 25 23" fill="none" xmlns="http://www.w3.org/2000/svg">
<path fill-rule="evenodd" clip-rule="evenodd" d="M3 20.9968L23.4268 0.570007L24.841 1.98422L22.8284 3.99679H24V19.9968H6.82843L4.41421 22.411L3 20.9968ZM22 17.9968H8.82843L11.2071 15.6181L12.2673 16.6783L12.2694 16.6762L13.3052 17.712L19.192 11.8253L22 14.6333V17.9968ZM22 11.8049L19.192 8.99677L13.3031 14.8857L12.6213 14.2039L20.8284 5.99679H22V11.8049Z" fill="#7C8B90"/>
<path d="M0 3.99679H14V5.99679H2V14.2394L5.2426 10.9968L8.07102 13.8252L6.65681 15.2394L5.2426 13.8252L2 17.0678V19.9968H0V3.99679Z" fill="#7C8B90"/>
<path fill-rule="evenodd" clip-rule="evenodd" d="M8.5 11.9968C9.88071 11.9968 11 10.8775 11 9.49677C11 8.11605 9.88071 6.99677 8.5 6.99677C7.11929 6.99677 6 8.11605 6 9.49677C6 10.8775 7.11929 11.9968 8.5 11.9968ZM8.5 9.99677C8.77614 9.99677 9 9.77291 9 9.49677C9 9.22062 8.77614 8.99677 8.5 8.99677C8.22386 8.99677 8 9.22062 8 9.49677C8 9.77291 8.22386 9.99677 8.5 9.99677Z" fill="#7C8B90"/>
</svg>
