<svg width="20" height="20" viewBox="0 0 20 20" fill="none" xmlns="http://www.w3.org/2000/svg">
<path fill-rule="evenodd" clip-rule="evenodd" d="M10 19.75C15.3848 19.75 19.75 15.3848 19.75 10C19.75 4.61522 15.3848 0.25 10 0.25C4.61522 0.25 0.25 4.61522 0.25 10C0.25 15.3848 4.61522 19.75 10 19.75ZM16.8263 14.6344C17.7248 13.3135 18.25 11.7181 18.25 10C18.25 5.44365 14.5563 1.75 10 1.75C5.44365 1.75 1.75 5.44365 1.75 10C1.75 11.7442 2.29129 13.362 3.21505 14.6946C3.20119 14.6746 3.18741 14.6545 3.17373 14.6344C4.21773 13.4205 5.57996 12.4882 7.13098 11.967C6.13466 11.1415 5.5 9.89489 5.5 8.5C5.5 6.01472 7.51472 4 10 4C12.4853 4 14.5 6.01472 14.5 8.5C14.5 9.8949 13.8653 11.1416 12.869 11.967C14.42 12.4883 15.7823 13.4206 16.8263 14.6344ZM15.8549 15.8123C14.4804 14.0978 12.3684 13 9.99998 13C7.63159 13 5.5196 14.0978 4.14511 15.8123C5.63972 17.3178 7.71099 18.25 10 18.25C12.289 18.25 14.3603 17.3178 15.8549 15.8123ZM10 5.5C8.34315 5.5 7 6.84315 7 8.5C7 10.1569 8.34315 11.5 10 11.5C11.6569 11.5 13 10.1569 13 8.5C13 6.84315 11.6569 5.5 10 5.5Z" fill="#00811F"/>
</svg>
