<svg width="184" height="128" viewBox="0 0 184 128" fill="none" xmlns="http://www.w3.org/2000/svg">
<path fill-rule="evenodd" clip-rule="evenodd" d="M155.959 44.5C163.959 44.3 169.859 40.7 173.559 36.8C175.259 37.5 176.259 39.4 176.159 40.8C175.559 46.3 158.659 48 149.459 48.1C151.859 49.4 157.359 51.1 162.859 51.1C164.536 51.0695 166 50.9367 167.184 50.8292L167.184 50.8292C169.883 50.5843 171.132 50.4709 170.159 52C169.259 53.4 165.259 57.5 154.659 56.4C148.759 55.7 142.559 52.6 142.059 52.3C140.059 51.2 141.359 50.8 142.859 51.2C147.759 52.6 153.759 52.5 153.759 52.5C153.759 52.5 137.459 49 127.059 43.3L140.859 62.4C129.459 60.1 122.259 64.7 122.259 64.7L113.759 57.5C113.759 57.5 118.259 54 124.859 54.7L116.059 39.2C122.759 34.8 124.259 27.7 123.459 21.9C122.859 17.6 121.359 14.3 119.059 13C119.059 13 121.959 14.4 126.659 17.3C131.059 20 133.259 24.2 133.059 29.1C132.959 32.7 132.059 35.9 129.759 39.1C141.459 44.2 146.459 44.8 155.959 44.5ZM39.1588 17.3C36.0588 24 40.2588 26.4 47.2588 26.4C49.8781 26.4 52.4973 25.5192 55.5375 24.4967C64.9171 21.3424 78.3035 16.8406 108.059 32.7C104.759 33.6 100.559 34.6 100.559 34.6C97.3588 32.5 93.8588 34.4 91.0588 36.3C90.449 36.6946 89.6655 37.3015 88.7487 38.0116C84.5537 41.2609 77.5675 46.6723 71.6588 43.8C70.1588 43 67.1588 41.4 64.7588 41.6C63.4152 41.6707 62.4216 42.1415 61.1062 42.7648C60.5615 43.0229 59.9616 43.3072 59.2588 43.6C56.8588 44.7 56.7588 42.9 59.4588 41C66.7588 36 82.7588 28.2 98.5588 30.6C77.3588 24 70.5588 25.1 48.5588 34.3C47.7588 34.7 46.8588 35 45.9588 35.3C46.9588 36.8 50.1588 38 54.6588 36.7C54.7887 36.6567 54.9409 36.6028 55.111 36.5426L55.1112 36.5426L55.1116 36.5425L55.1121 36.5423L55.1124 36.5422C56.5141 36.0461 59.1325 35.1194 60.5588 36.1C60.5588 36.1 54.0588 40.3 48.4588 40.9C38.3588 42 25.1588 37.8 21.1588 33.4C19.7588 31.8 19.7588 30.4 21.3588 30.8L21.419 30.8134L21.419 30.8134C22.5055 31.0553 28.5446 32.4 32.7588 32.4C35.6588 32.4 37.8588 32.2 39.6588 31.8C20.6588 24.7 34.5588 17.6 38.9588 16.3C39.9588 16 39.4588 17 39.1588 17.3ZM106.359 42.6L100.559 44V60.6C100.559 60.6 96.2588 63.9 91.0588 62.6L99.5588 69.8C105.759 71.1 109.659 67.3 109.659 67.3V49.3L106.359 42.6ZM113.959 24.4C114.159 26.1 113.959 27.9 113.359 29.3C113.294 29.4937 113.188 29.6875 113.067 29.9081C113.001 30.0292 112.93 30.1583 112.859 30.3C112.82 30.3517 112.783 30.4016 112.747 30.45C112.506 30.7758 112.32 31.0258 112.059 31.2C100.859 25.1 89.7588 19.3 83.0588 18.7C79.8588 18.4 82.5588 15.2 85.9588 15.5C87.9588 15.7 89.0588 16 91.0588 16.8C95.0588 18.4 100.559 22.4 100.559 22.4L108.859 20.4L108.907 20.3902C109.527 20.2631 112.39 19.6764 113.459 22.3C113.659 23 113.859 23.7 113.959 24.4ZM11.4588 21.9C8.25883 19.9 5.75883 22.5 7.65883 24.4C8.50982 25.3042 9.02135 25.4163 9.90057 25.609C10.6744 25.7785 11.7331 26.0106 13.5588 26.9C14.0739 27.1576 14.5476 27.498 14.9231 27.7679C15.7138 28.3364 16.0691 28.5917 15.4588 27.1C14.3588 24.5 13.3588 23 11.4588 21.9ZM73.3588 85H65.9588V87.7H70.4588V88C70.4588 88.7 70.2588 89.3 69.9588 89.8C69.5588 90.3 69.1588 90.7 68.6588 90.9C68.1588 91.2 67.5588 91.3 67.0588 91.3C65.6588 91.3 64.6588 90.8 63.8588 89.9C63.0588 89 62.6588 87.7 62.6588 86C62.6588 84.9 62.8588 84 63.2588 83.2C63.6588 82.4 64.1588 81.8 64.8588 81.4C65.5588 81 66.2588 80.8 67.1588 80.8C67.8588 80.8 68.5588 80.9 69.2588 81.2C69.9588 81.5 70.5588 81.9 71.2588 82.5L73.1588 80.5C72.2588 79.6 71.3588 79 70.3588 78.6C69.3588 78.2 68.2588 78 66.9588 78C65.4588 78 64.0588 78.3 62.9588 79C61.7588 79.6 60.8588 80.6 60.2588 81.8C59.6588 83 59.3588 84.4 59.3588 85.9C59.3588 87.4 59.6588 88.8 60.1588 90C60.7588 91.2 61.5588 92.1 62.5588 92.8C63.5588 93.5 64.7588 93.8 66.2588 93.8C67.1588 93.8 67.9588 93.7 68.7588 93.3C69.5588 92.9 70.1588 92.4 70.6588 91.7V93.5H73.3588V85ZM86.0588 88.9H78.0588C78.2588 89.6 78.5588 90.2 79.0588 90.7C79.5588 91.1 80.2588 91.4 81.0588 91.4C81.6588 91.4 82.1588 91.3 82.6588 91.1C83.1588 90.9 83.6588 90.6 84.1588 90.2L85.5588 92.1C84.2588 93.3 82.7588 93.9 80.9588 93.9C79.7588 93.9 78.7588 93.7 77.9588 93.2C77.0588 92.7 76.4588 92 75.9588 91.1C75.4588 90.2 75.2588 89.2 75.2588 88C75.2588 86.9 75.4588 85.8 75.9588 84.9C76.3588 84 77.0588 83.3 77.8588 82.8C78.6588 82.3 79.6588 82 80.7588 82C81.8588 82 82.7588 82.2 83.5588 82.7C84.3588 83.2 84.9588 83.8 85.4588 84.6C85.8588 85.4 86.1588 86.4 86.1588 87.5V88.9H86.0588ZM79.1588 85C78.7588 85.4 78.4588 86 78.2588 86.7H83.2588C83.1588 86 82.9588 85.4 82.5588 85C82.1588 84.6 81.5588 84.4 80.8588 84.4C80.0588 84.4 79.5588 84.6 79.1588 85ZM104.459 85.8C104.459 84.7 104.159 83.8 103.459 83.1C102.759 82.4 101.859 82.1 100.959 82.1C100.159 82.1 99.5588 82.3 98.9588 82.6C98.3588 83 97.9588 83.4 97.5588 84C97.2588 83.4 96.8588 82.9 96.2588 82.6C95.6588 82.3 94.9588 82.1 94.2588 82.1C93.5588 82.1 92.8588 82.3 92.2588 82.6C91.7588 82.9 91.2588 83.4 90.9588 84V82.5H88.1588V93.3H91.1588V86.8C91.1588 86.2 91.2588 85.6 91.6588 85.2C91.9588 84.8 92.4588 84.6 93.0588 84.6C93.6588 84.6 94.0588 84.7 94.3588 85.1C94.6588 85.5 94.7588 86 94.7588 86.6V93.4H97.7588V86.7C97.7588 86.1 97.9588 85.6 98.2588 85.2C98.6588 84.8 99.0588 84.6 99.6588 84.6C100.159 84.6 100.659 84.8 100.959 85.2C101.259 85.6 101.459 86.1 101.459 86.7V93.5H104.459V85.8ZM117.159 88.9H109.159C109.359 89.6 109.659 90.2 110.159 90.7C110.659 91.1 111.359 91.4 112.159 91.4C112.759 91.4 113.259 91.3 113.759 91.1C114.259 90.9 114.759 90.6 115.259 90.2L116.659 92.1C115.359 93.3 113.859 93.9 112.059 93.9C110.859 93.9 109.859 93.7 109.059 93.2C108.159 92.7 107.559 92 107.059 91.1C106.559 90.2 106.359 89.2 106.359 88C106.359 86.9 106.559 85.8 107.059 84.9C107.459 84 108.159 83.3 108.959 82.8C109.759 82.3 110.759 82 111.859 82C112.959 82 113.859 82.2 114.659 82.7C115.459 83.2 116.059 83.8 116.559 84.6C116.959 85.4 117.259 86.4 117.259 87.5V88.9H117.159ZM110.159 85C109.759 85.4 109.459 86 109.259 86.7H114.259C114.159 86 113.959 85.4 113.559 85C113.159 84.6 112.559 84.4 111.859 84.4C111.159 84.4 110.559 84.6 110.159 85ZM121.259 88.9H129.259H129.359V87.5C129.359 86.4 129.059 85.4 128.659 84.6C128.159 83.8 127.559 83.2 126.759 82.7C125.959 82.2 125.059 82 123.959 82C122.859 82 121.859 82.3 121.059 82.8C120.259 83.3 119.559 84 119.159 84.9C118.659 85.8 118.459 86.9 118.459 88C118.459 89.2 118.659 90.2 119.159 91.1C119.659 92 120.259 92.7 121.159 93.2C121.959 93.7 122.959 93.9 124.159 93.9C125.959 93.9 127.459 93.3 128.759 92.1L127.359 90.2C126.859 90.6 126.359 90.9 125.859 91.1C125.359 91.3 124.859 91.4 124.259 91.4C123.459 91.4 122.759 91.1 122.259 90.7C121.759 90.2 121.459 89.6 121.259 88.9ZM121.359 86.7C121.559 86 121.859 85.4 122.259 85C122.659 84.6 123.259 84.4 123.959 84.4C124.659 84.4 125.259 84.6 125.659 85C126.059 85.4 126.259 86 126.359 86.7H121.359ZM140.159 83.2C140.859 83.9 141.159 84.9 141.159 86V93.5H138.159V86.8C138.159 86.1 137.959 85.6 137.659 85.2C137.359 84.9 136.859 84.7 136.259 84.7C135.659 84.7 135.159 84.9 134.759 85.4C134.359 85.8 134.159 86.4 134.159 87.2V93.5H131.159V82.5H133.959V84.1C134.259 83.5 134.659 83 135.359 82.7C135.959 82.3 136.659 82.2 137.459 82.2C138.559 82.1 139.459 82.5 140.159 83.2ZM142.359 84.8H144.259H144.359V90.7C144.359 91.7 144.559 92.5 145.059 93C145.559 93.5 146.359 93.8 147.659 93.8C148.459 93.8 149.159 93.7 149.759 93.5V91.2C149.459 91.3 149.059 91.3 148.659 91.3C148.159 91.3 147.759 91.2 147.559 91C147.359 90.8 147.259 90.6 147.259 90.2V84.8H149.459V82.4H147.259V78.2L144.259 79.8V82.4H142.359V84.8ZM161.359 88.9H153.359C153.559 89.6 153.859 90.2 154.359 90.7C154.859 91.1 155.559 91.4 156.359 91.4C156.959 91.4 157.459 91.3 157.959 91.1C158.459 90.9 158.959 90.6 159.459 90.2L160.859 92.1C159.559 93.3 158.059 93.9 156.259 93.9C155.059 93.9 154.059 93.7 153.259 93.2C152.359 92.7 151.759 92 151.259 91.1C150.759 90.2 150.559 89.2 150.559 88C150.559 86.9 150.759 85.8 151.259 84.9C151.659 84 152.359 83.3 153.159 82.8C153.959 82.3 154.959 82 156.059 82C157.159 82 158.059 82.2 158.859 82.7C159.659 83.2 160.259 83.8 160.759 84.6C161.159 85.4 161.459 86.4 161.459 87.5V88.9H161.359ZM154.359 85C153.959 85.4 153.659 86 153.459 86.7H158.459C158.359 86 158.159 85.4 157.759 85C157.359 84.6 156.759 84.4 156.059 84.4C155.359 84.4 154.859 84.6 154.359 85ZM65.9588 109.2L69.5588 114.8H72.9588L69.0588 108.8C70.0588 108.5 70.8588 107.9 71.4588 107.1C72.0588 106.3 72.3588 105.3 72.3588 104.2C72.3588 103.3 72.1588 102.4 71.7588 101.7C71.3588 101 70.7588 100.4 70.0588 100C69.2588 99.6 68.4588 99.4 67.5588 99.4H60.3588V114.8H63.4588V109.2H65.9588ZM63.4588 106.5V102H66.9588C67.6588 102 68.2588 102.2 68.6588 102.6C69.0588 103 69.2588 103.6 69.2588 104.3C69.2588 105 69.0588 105.5 68.6588 105.9C68.2588 106.3 67.6588 106.5 66.9588 106.5H63.4588ZM76.2588 114.4C75.3588 113.9 74.7588 113.2 74.2588 112.3C73.7588 111.4 73.5588 110.4 73.5588 109.2C73.5588 108 73.7588 107 74.2588 106.1C74.7588 105.2 75.3588 104.5 76.2588 104C77.1588 103.5 78.0588 103.3 79.2588 103.3C80.3588 103.3 81.3588 103.5 82.2588 104C83.1588 104.5 83.7588 105.2 84.2588 106.1C84.7588 107 84.9588 108 84.9588 109.2C84.9588 110.4 84.7588 111.4 84.2588 112.3C83.7588 113.2 83.1588 113.9 82.2588 114.4C81.3588 114.9 80.4588 115.1 79.3588 115.1C78.2588 115.1 77.1588 114.9 76.2588 114.4ZM81.0588 111.7C81.5588 111.1 81.7588 110.3 81.7588 109.2C81.7588 108.1 81.5588 107.3 81.0588 106.7C80.5588 106.1 79.9588 105.8 79.1588 105.8C78.3588 105.8 77.7588 106.1 77.2588 106.7C76.7588 107.3 76.5588 108.1 76.5588 109.2C76.5588 110.3 76.7588 111.1 77.2588 111.7C77.7588 112.3 78.3588 112.6 79.1588 112.6C79.9588 112.6 80.6588 112.3 81.0588 111.7ZM85.6588 106.1H87.5588H87.6588V112C87.6588 113 87.8588 113.8 88.3588 114.3C88.8588 114.8 89.6588 115.1 90.9588 115.1C91.7588 115.1 92.4588 115 93.0588 114.8V112.5C92.7588 112.6 92.3588 112.6 91.9588 112.6C91.4588 112.6 91.0588 112.5 90.8588 112.3C90.6588 112.1 90.5588 111.9 90.5588 111.5V106.1H92.7588V103.7H90.5588V99.5L87.5588 101.1V103.7H85.6588V106.1ZM95.7588 106.1H93.8588V103.7H95.7588V101.1L98.7588 99.5V103.7H100.959V106.1H98.7588V111.5C98.7588 111.9 98.8588 112.1 99.0588 112.3C99.2588 112.5 99.6588 112.6 100.159 112.6C100.559 112.6 100.959 112.6 101.259 112.5V114.8C100.659 115 99.9588 115.1 99.1588 115.1C97.8588 115.1 97.0588 114.8 96.5588 114.3C96.0588 113.8 95.8588 113 95.8588 112V106.1H95.7588ZM104.859 110.2H112.859H112.959V108.8C112.959 107.7 112.659 106.7 112.259 105.9C111.759 105.1 111.159 104.5 110.359 104C109.559 103.5 108.659 103.3 107.559 103.3C106.459 103.3 105.459 103.6 104.659 104.1C103.859 104.6 103.159 105.3 102.759 106.2C102.259 107.1 102.059 108.2 102.059 109.3C102.059 110.5 102.259 111.5 102.759 112.4C103.259 113.3 103.859 114 104.759 114.5C105.559 115 106.559 115.2 107.759 115.2C109.559 115.2 111.059 114.6 112.359 113.4L110.959 111.5C110.459 111.9 109.959 112.2 109.459 112.4C108.959 112.6 108.459 112.7 107.859 112.7C107.059 112.7 106.359 112.4 105.859 112C105.359 111.5 105.059 110.9 104.859 110.2ZM104.959 108C105.159 107.3 105.459 106.7 105.859 106.3C106.359 105.8 106.859 105.6 107.559 105.7C108.259 105.7 108.859 105.9 109.259 106.3C109.659 106.7 109.859 107.3 109.959 108H104.959ZM121.859 103.6V106.5C121.559 106.4 121.159 106.4 120.759 106.4C119.859 106.4 119.159 106.7 118.559 107.4C117.959 108.1 117.759 109.1 117.759 110.4V114.8H114.759V103.7H117.559V105.9C117.759 105.2 118.159 104.6 118.759 104.2C119.359 103.8 120.059 103.6 120.759 103.6C121.034 103.531 121.309 103.557 121.552 103.58L121.552 103.58C121.662 103.59 121.765 103.6 121.859 103.6ZM133.459 98.9H130.459V104.8C129.759 103.7 128.659 103.2 127.259 103.2C126.359 103.2 125.459 103.4 124.759 103.9C124.059 104.4 123.459 105.1 123.059 106C122.659 106.9 122.459 107.9 122.459 109.1C122.459 110.3 122.659 111.3 123.059 112.2C123.459 113.1 124.059 113.8 124.759 114.3C125.459 114.8 126.359 115 127.259 115C128.859 115 129.959 114.4 130.659 113.1V114.7H133.459V98.9ZM130.559 109.2C130.559 110.2 130.359 111.1 129.859 111.7C129.359 112.3 128.759 112.6 128.059 112.6C127.259 112.6 126.659 112.3 126.159 111.7C125.659 111.1 125.459 110.3 125.459 109.2C125.459 108.1 125.659 107.3 126.159 106.7C126.659 106.1 127.259 105.8 128.059 105.8C128.759 105.8 129.359 106.1 129.859 106.7C130.359 107.3 130.559 108.2 130.559 109.2ZM145.559 112.4H146.859V114.8H142.959V113.2C142.659 113.8 142.259 114.3 141.659 114.6C141.059 115 140.259 115.2 139.459 115.2C138.359 115.2 137.459 114.9 136.659 114.3C135.959 113.7 135.559 112.9 135.559 111.8C135.559 110.7 135.959 109.9 136.759 109.3C137.559 108.7 138.659 108.3 140.059 108L142.559 107.5V107.3C142.559 106.8 142.459 106.4 142.159 106.1C141.859 105.8 141.359 105.7 140.659 105.7C140.059 105.7 139.459 105.8 138.859 106.1C138.259 106.3 137.759 106.6 137.259 107L135.859 105.1C136.459 104.6 137.259 104.2 138.059 103.9C138.959 103.6 139.959 103.4 141.059 103.4C144.059 103.4 145.559 104.6 145.559 107.1V112.4ZM141.759 112.3C142.259 111.9 142.459 111.4 142.459 110.7V109.7L140.559 110.1C140.351 110.159 140.152 110.21 139.967 110.257L139.966 110.257C139.528 110.368 139.17 110.459 138.959 110.6C138.659 110.8 138.459 111.1 138.459 111.6C138.459 112 138.659 112.3 138.959 112.5C139.259 112.7 139.659 112.8 140.159 112.8C140.759 112.9 141.259 112.7 141.759 112.3ZM164.859 107C164.859 105.9 164.559 105 163.859 104.3C163.259 103.7 162.359 103.3 161.359 103.4C160.559 103.4 159.959 103.6 159.359 103.9C158.759 104.3 158.359 104.7 157.959 105.3C157.659 104.7 157.259 104.2 156.659 103.9C156.059 103.6 155.359 103.4 154.659 103.4C153.959 103.4 153.259 103.6 152.659 103.9C152.159 104.2 151.659 104.7 151.359 105.3V103.7H148.559V114.7H151.559V108.2C151.559 107.6 151.659 107 152.059 106.6C152.359 106.2 152.859 106 153.459 106C154.059 106 154.459 106.1 154.759 106.5C155.059 106.9 155.159 107.4 155.159 108V114.7H158.159V108C158.159 107.4 158.259 106.9 158.659 106.5C159.059 106.1 159.459 105.9 160.059 105.9C160.559 105.9 161.059 106.1 161.359 106.5C161.659 106.9 161.859 107.4 161.859 108V114.7H164.859V107Z" fill="#00811F"/>
</svg>
