<svg width="64" height="64" viewBox="0 0 64 64" fill="none" xmlns="http://www.w3.org/2000/svg">
<path fill-rule="evenodd" clip-rule="evenodd" d="M45.6 29.1C47.9 25.9 48.8 22.7 48.9 19.1C49.1 14.2 46.9 10 42.5 7.3C37.8 4.4 35 3 35 3C37.3 4.3 38.8 7.6 39.4 11.9C40.2 17.7 38.7 24.8 32 29.2L40.8 44.7C34.2 44 29.7 47.5 29.7 47.5L38.2 54.7C38.2 54.7 45.4 50.1 56.8 52.4L42.5 32.9C43.8 31.5 44.6 30.5 45.6 29.1ZM16.5 34V50.6C16.5 50.6 12.2 53.9 7 52.6L15.5 59.8C21.7 61.1 25.6 57.3 25.6 57.3V39.3L22.3 32.6L16.5 34ZM24.9344 22.4172C24.6375 22.5063 24.325 22.6 24 22.7C23.9657 22.7086 23.8821 22.7296 23.758 22.7609C22.4346 23.0947 16.5 24.5914 16.5 24.5V12.2L24.8 10.2C25.1 10.1 26.4 9.8 27.6 10.3C27.6472 10.3236 27.7 10.3472 27.7557 10.3721C27.9361 10.4528 28.1472 10.5472 28.3 10.7L28.6 11C28.7 11.1 28.8 11.225 28.9 11.35C29 11.475 29.1 11.6 29.2 11.7C29.25 11.8 29.275 11.875 29.3 11.95C29.325 12.025 29.35 12.1 29.4 12.2C29.4 12.4374 29.4626 12.6122 29.5383 12.8234C29.5583 12.8791 29.5791 12.9374 29.6 13C29.6 13.1 29.625 13.175 29.65 13.25C29.675 13.325 29.7 13.4 29.7 13.5C29.8 13.7 29.9 14 29.9 14.3C30.1 16 29.9 17.8 29.3 19.2C29 20 28.5 20.6 28 21.1C27.7 21.4 27.4 21.6 27.1 21.7C26.575 21.925 25.825 22.15 24.9344 22.4172Z" fill="#00811F"/>
</svg>
