<svg width="14" height="22" viewBox="0 0 14 22" fill="none" xmlns="http://www.w3.org/2000/svg">
<path fill-rule="evenodd" clip-rule="evenodd" d="M1.43934 0.5H12.5607L13.75 1.68934V20.3107L12.5607 21.5H1.43934L0.25 20.3107V1.68934L1.43934 0.5ZM2.06066 2L1.75 2.31066V19.6893L2.06066 20H11.9393L12.25 19.6893V2.31066L11.9393 2H10L9.25 3.5H4.75L4 2H2.06066ZM7 16.25C6.17157 16.25 5.5 16.9216 5.5 17.75C5.5 18.5784 6.17157 19.25 7 19.25C7.82843 19.25 8.5 18.5784 8.5 17.75C8.5 16.9216 7.82843 16.25 7 16.25Z" fill="#00811F"/>
</svg>
