<svg width="18" height="21" viewBox="0 0 18 21" fill="none" xmlns="http://www.w3.org/2000/svg">
<path fill-rule="evenodd" clip-rule="evenodd" d="M13.7727 3.72704C11.15 1.10433 6.84951 1.10433 4.2268 3.72704C1.60409 6.34975 1.60409 10.6503 4.2268 13.273L8.99977 18.046L13.7727 13.273C16.3955 10.6503 16.3955 6.34975 13.7727 3.72704ZM8.99977 20.1673L3.16614 14.3336C-0.0423586 11.1251 -0.0423585 5.87488 3.16614 2.66638C6.37463 -0.542114 11.6249 -0.542114 14.8334 2.66638C18.0419 5.87488 18.0419 11.1251 14.8334 14.3336L8.99977 20.1673ZM11.9997 8.49999C11.9997 10.1568 10.6565 11.5 8.99966 11.5C7.34281 11.5 5.99966 10.1568 5.99966 8.49999C5.99966 6.84314 7.34281 5.49999 8.99966 5.49999C10.6565 5.49999 11.9997 6.84314 11.9997 8.49999ZM10.4997 8.49999C10.4997 9.32842 9.82809 9.99999 8.99966 9.99999C8.17123 9.99999 7.49966 9.32842 7.49966 8.49999C7.49966 7.67157 8.17123 6.99999 8.99966 6.99999C9.82809 6.99999 10.4997 7.67157 10.4997 8.49999Z" fill="#00811F"/>
</svg>
